<?xml version="1.0" encoding="utf-8"?>
<!-- Generator: Adobe Illustrator 14.0.0, SVG Export Plug-In . SVG Version: 6.00 Build 43363)  -->
<!DOCTYPE svg PUBLIC "-//W3C//DTD SVG 1.1//EN" "http://www.w3.org/Graphics/SVG/1.1/DTD/svg11.dtd">
<svg version="1.1"
	 id="svg2" inkscape:output_extension="org.inkscape.output.svg.inkscape" xmlns:inkscape="http://www.inkscape.org/namespaces/inkscape" xmlns:cc="http://creativecommons.org/ns#" xmlns:dc="http://purl.org/dc/elements/1.1/" xmlns:rdf="http://www.w3.org/1999/02/22-rdf-syntax-ns#" sodipodi:docname="FOSSGIS-Logo-farbig.svg" sodipodi:version="0.32" inkscape:version="0.46" xmlns:svg="http://www.w3.org/2000/svg" xmlns:sodipodi="http://sodipodi.sourceforge.net/DTD/sodipodi-0.dtd"
	 xmlns="http://www.w3.org/2000/svg" xmlns:xlink="http://www.w3.org/1999/xlink" x="0px" y="0px" width="671px" height="201px"
	 viewBox="0 0 671 201" enable-background="new 0 0 671 201" xml:space="preserve">
<defs>
	
	
		<inkscape:perspective  id="perspective81" inkscape:vp_y="0 : 1000 : 0" inkscape:vp_x="0 : 121.875 : 1" sodipodi:type="inkscape:persp3d" inkscape:vp_z="838.75 : 121.875 : 1" inkscape:persp3d-origin="419.375 : 81.25 : 1">
		</inkscape:perspective>
	
		<inkscape:perspective  id="perspective2654" inkscape:vp_y="0 : 1000 : 0" inkscape:vp_x="0 : 97.377998 : 1" sodipodi:type="inkscape:persp3d" inkscape:vp_z="670.70898 : 97.377998 : 1" inkscape:persp3d-origin="335.35449 : 64.918666 : 1">
		</inkscape:perspective>
</defs>
<sodipodi:namedview  id="base" inkscape:window-height="709" inkscape:window-width="1016" inkscape:pageshadow="2" inkscape:pageopacity="0.0" guidetolerance="10.0" gridtolerance="10.0" objecttolerance="10.0" borderopacity="1.0" bordercolor="#666666" pagecolor="#ffffff" showgrid="false" inkscape:zoom="0.6485842" inkscape:cx="609.27977" inkscape:cy="-2.2414982" inkscape:window-x="0" inkscape:window-y="0" inkscape:current-layer="svg2">
	</sodipodi:namedview>
<g id="g56" transform="translate(620.044, 125.221)">
	<path id="path58" fill="#FE6604" d="M17.052,0v7.541h-5.277V0.522H8.12v7.019H3.654V0H0v11.92h20.706V0H17.052z"/>
</g>
<g id="g60" transform="translate(636.313, 116.888)">
	<path id="path62" fill="#FE6604" d="M3.509,4.757c0.29-0.117,0.551-0.291,0.725-0.522c0.203-0.231,0.348-0.493,0.436-0.783
		c0.087-0.319,0.145-0.638,0.145-0.985c0-0.319-0.058-0.639-0.145-0.929C4.582,1.217,4.437,0.958,4.234,0.725
		C4.06,0.522,3.799,0.319,3.509,0.203C3.19,0.057,2.842,0.001,2.407,0.001c-0.435,0-0.812,0.057-1.131,0.202
		c-0.29,0.116-0.551,0.319-0.725,0.522C0.348,0.958,0.203,1.217,0.116,1.537C0.029,1.827,0,2.146,0,2.466
		c0,0.348,0.029,0.666,0.116,0.985c0.087,0.29,0.232,0.552,0.436,0.783c0.174,0.231,0.435,0.405,0.725,0.522
		C1.595,4.901,1.972,4.96,2.407,4.96C2.842,4.96,3.19,4.901,3.509,4.757z"/>
</g>
<g id="g64" transform="translate(620.044, 99.0596)">
	<path id="path66" fill="#FE6604" d="M12.47,7.889c0.175,0.058,0.436,0.116,0.812,0.202c0.377,0.088,0.783,0.175,1.247,0.291
		c0.435,0.086,0.898,0.174,1.334,0.261c0.464,0.087,0.841,0.146,1.16,0.202c-0.319,0.029-0.696,0.117-1.16,0.203
		c-0.436,0.088-0.899,0.175-1.334,0.262c-0.464,0.087-0.87,0.174-1.247,0.232c-0.377,0.086-0.667,0.145-0.812,0.203L0,13.253v4.438
		l20.706-6.438V6.468L0,0v4.438L12.47,7.889z"/>
</g>
<g id="g68" transform="translate(636.313, 93.6377)">
	<path id="path70" fill="#FE6604" d="M3.509,4.756c0.29-0.115,0.551-0.289,0.725-0.521c0.203-0.232,0.348-0.493,0.436-0.783
		c0.087-0.319,0.145-0.638,0.145-0.986c0-0.318-0.058-0.638-0.145-0.928c-0.088-0.318-0.232-0.58-0.436-0.812
		C4.06,0.522,3.799,0.319,3.509,0.203C3.19,0.059,2.842,0,2.407,0C1.972,0,1.595,0.059,1.276,0.203
		c-0.29,0.116-0.551,0.319-0.725,0.522C0.348,0.957,0.203,1.219,0.116,1.537C0.029,1.827,0,2.146,0,2.465
		c0,0.349,0.029,0.667,0.116,0.986c0.087,0.29,0.232,0.551,0.436,0.783c0.174,0.232,0.435,0.406,0.725,0.521
		c0.319,0.146,0.696,0.203,1.131,0.203C2.842,4.959,3.19,4.901,3.509,4.756z"/>
</g>
<g id="g3685">
	<g id="g3668">
		<g id="g2797">
			<g id="g28" transform="translate(13.5,29.4004)">
				<path id="path30" fill="#EE7F00" d="M22.2,65.1h36.45V46.2H22.2V18.899H61.35V0H0v107.1h22.2V65.1z"/>
			</g>
			<g id="g32" transform="translate(212.15,27.9004)">
				<path id="path34" fill="#EE7F00" d="M63.45,67.95c-1.2-3.15-3-6-5.25-8.4c-2.1-2.55-4.8-4.8-7.95-6.75c-3-2.1-6.45-4.05-10.05-6
					c-3-1.65-5.7-3-7.8-4.35c-2.1-1.2-3.75-2.551-5.1-3.75c-1.35-1.2-2.4-2.551-3-3.9c-0.6-1.35-0.9-3-0.9-4.8c0-3.3,1.05-6,3-8.101
					c2.1-1.949,4.95-3,8.85-3c1.65,0,3.45,0.15,5.25,0.45c1.65,0.15,3.45,0.601,5.25,1.2c1.8,0.45,3.6,1.2,5.55,1.95
					c1.95,0.75,4.05,1.649,6.15,2.7L64.8,7.5c-2.55-1.2-5.1-2.25-7.5-3.15c-2.55-0.899-4.95-1.8-7.35-2.399
					c-2.4-0.601-4.8-1.051-7.35-1.5C40.2,0.149,37.65,0,35.1,0C29.85,0,25.2,0.75,21,2.1c-4.2,1.351-7.65,3.3-10.65,5.851
					C7.5,10.649,5.1,13.8,3.6,17.55c-1.65,3.9-2.4,8.1-2.4,12.9c0,4.949,0.9,9.149,2.55,12.6s3.6,6.45,6.15,8.85
					c2.4,2.551,5.1,4.65,7.8,6.301c2.85,1.649,5.4,3,7.65,4.199c2.7,1.5,5.1,2.7,7.2,4.051c2.25,1.199,4.05,2.55,5.7,3.899
					c1.5,1.351,2.7,2.85,3.45,4.35c0.9,1.5,1.35,3.301,1.35,5.25c0,1.65-0.3,3.15-0.75,4.5c-0.6,1.5-1.35,2.551-2.4,3.601
					c-1.2,1.05-2.55,1.8-4.35,2.25c-1.8,0.6-3.9,0.899-6.45,0.899c-2.4,0-4.8-0.3-7.35-0.75C19.35,90,16.8,89.399,14.4,88.5
					c-2.55-0.75-4.95-1.65-7.35-2.7c-2.4-1.05-4.8-2.101-7.05-3.3v21.15c4.05,2.1,8.55,3.75,13.35,4.8s9.75,1.649,15,1.649
					c5.85,0,11.1-0.75,15.75-2.25c4.5-1.35,8.4-3.449,11.55-6.149c3.15-2.7,5.55-6.001,7.2-9.9c1.65-3.75,2.4-8.101,2.4-12.9
					C65.25,74.699,64.65,71.1,63.45,67.95z"/>
			</g>
			<g id="g36" transform="translate(292.15,27.9004)">
				<path id="path38" fill="#EE7F00" d="M63.45,67.95c-1.199-3.15-3-6-5.25-8.4c-2.1-2.55-4.8-4.8-7.949-6.75
					c-3-2.1-6.45-4.05-10.051-6c-3-1.65-5.699-3-7.8-4.35c-2.1-1.2-3.75-2.551-5.1-3.75c-1.351-1.2-2.4-2.551-3-3.9
					c-0.601-1.35-0.9-3-0.9-4.8c0-3.3,1.05-6,3-8.101c2.101-1.949,4.95-3,8.851-3c1.649,0,3.449,0.15,5.25,0.45
					c1.649,0.15,3.449,0.601,5.25,1.2c1.8,0.45,3.6,1.2,5.55,1.95s4.05,1.649,6.149,2.7L64.8,7.5c-2.55-1.2-5.101-2.25-7.5-3.15
					c-2.55-0.899-4.95-1.8-7.351-2.399c-2.399-0.601-4.8-1.051-7.35-1.5C40.2,0.149,37.65,0,35.1,0C29.85,0,25.2,0.75,21,2.1
					c-4.2,1.351-7.65,3.3-10.65,5.851C7.5,10.649,5.1,13.8,3.6,17.55c-1.65,3.9-2.4,8.1-2.4,12.9c0,4.949,0.9,9.149,2.55,12.6
					s3.6,6.45,6.15,8.85C12.3,54.45,15,56.55,17.7,58.2c2.851,1.649,5.4,3,7.65,4.199c2.7,1.5,5.1,2.7,7.2,4.051
					c2.25,1.199,4.05,2.55,5.7,3.899c1.5,1.351,2.699,2.85,3.449,4.35c0.9,1.5,1.351,3.301,1.351,5.25c0,1.65-0.3,3.15-0.75,4.5
					C41.7,85.949,40.95,87,39.9,88.05c-1.2,1.05-2.55,1.8-4.35,2.25c-1.8,0.6-3.9,0.899-6.45,0.899c-2.4,0-4.8-0.3-7.35-0.75
					C19.35,90,16.8,89.399,14.4,88.5c-2.55-0.75-4.95-1.65-7.35-2.7c-2.4-1.05-4.8-2.101-7.05-3.3v21.15
					c4.05,2.1,8.55,3.75,13.35,4.8s9.75,1.649,15,1.649c5.85,0,11.1-0.75,15.75-2.25c4.5-1.35,8.4-3.449,11.55-6.149
					c3.15-2.7,5.55-6.001,7.2-9.9c1.65-3.75,2.4-8.101,2.4-12.9C65.25,74.699,64.65,71.1,63.45,67.95z"/>
			</g>
			<g id="g40" transform="translate(374.2,27.9004)">
				<path id="path42" fill="#EE7F00" d="M45.45,67.35H65.7v22.35c-1.95,0.45-4.051,0.75-6.301,1.051
					c-2.25,0.3-4.949,0.449-8.1,0.449c-4.95,0-9.15-0.899-12.75-2.699c-3.45-1.65-6.45-4.2-8.7-7.351
					C27.6,78,25.95,74.25,24.9,69.899c-1.05-4.35-1.5-9.3-1.5-14.55c0-5.55,0.75-10.5,2.25-15S29.25,32.1,32.1,28.8
					c2.851-3.15,6.3-5.55,10.2-7.35c4.05-1.65,8.55-2.551,13.5-2.551c4.65,0,9,0.601,13.2,1.65c4.2,1.2,7.95,2.55,11.25,4.2
					l7.5-18.15c-4.5-1.95-9.601-3.6-15-4.8C67.2,0.6,61.65,0,55.95,0C46.95,0,39,1.35,32.1,3.899C25.05,6.45,19.2,10.05,14.4,14.85
					c-4.649,4.8-8.25,10.5-10.8,17.25C1.2,39,0,46.5,0,54.899c0,9,1.05,16.95,3.3,23.851C5.55,85.5,8.7,91.35,12.9,96
					c4.2,4.65,9.45,8.25,15.601,10.5c6.149,2.4,13.35,3.6,21.3,3.6c3.75,0,7.35-0.149,10.8-0.449c3.45-0.301,6.601-0.75,9.75-1.2
					c3.15-0.45,6.15-1.2,9-1.95c2.851-0.75,5.7-1.5,8.55-2.55v-55.5H45.45V67.35z"/>
			</g>
			<g id="g44" transform="translate(480.3,29.4004)">
				<path id="path46" fill="#EE7F00" d="M48.75,94.199l-13.05-6v-69.3l13.05-6V0H0v12.899l13.05,6v69.3l-13.05,6v12.9h48.75V94.199z
					"/>
			</g>
			<g id="g48" transform="translate(542.15,27.9004)">
				<path id="path50" fill="#EE7F00" d="M63.45,67.95c-1.199-3.15-3-6-5.25-8.4c-2.1-2.55-4.8-4.8-7.949-6.75
					c-3-2.1-6.45-4.05-10.051-6c-3-1.65-5.699-3-7.8-4.35c-2.1-1.2-3.75-2.551-5.1-3.75c-1.351-1.2-2.4-2.551-3-3.9
					c-0.601-1.35-0.9-3-0.9-4.8c0-3.3,1.05-6,3-8.101c2.101-1.949,4.95-3,8.851-3c1.649,0,3.449,0.15,5.25,0.45
					c1.649,0.15,3.449,0.601,5.25,1.2c1.8,0.45,3.6,1.2,5.55,1.95s4.05,1.649,6.149,2.7L64.8,7.5c-2.55-1.2-5.101-2.25-7.5-3.15
					c-2.55-0.899-4.95-1.8-7.351-2.399c-2.399-0.601-4.8-1.051-7.35-1.5C40.2,0.149,37.65,0,35.1,0C29.85,0,25.2,0.75,21,2.1
					c-4.2,1.351-7.65,3.3-10.65,5.851C7.5,10.649,5.1,13.8,3.6,17.55c-1.65,3.9-2.4,8.1-2.4,12.9c0,4.949,0.9,9.149,2.551,12.6
					C5.4,46.5,7.35,49.5,9.9,51.899C12.3,54.45,15,56.55,17.7,58.2c2.851,1.649,5.4,3,7.65,4.199c2.7,1.5,5.1,2.7,7.2,4.051
					c2.25,1.199,4.05,2.55,5.7,3.899c1.5,1.351,2.699,2.85,3.449,4.35c0.9,1.5,1.351,3.301,1.351,5.25c0,1.65-0.3,3.15-0.75,4.5
					C41.7,85.949,40.95,87,39.9,88.05c-1.2,1.05-2.55,1.8-4.35,2.25c-1.8,0.6-3.9,0.899-6.45,0.899c-2.4,0-4.8-0.3-7.35-0.75
					C19.35,90,16.8,89.399,14.4,88.5c-2.55-0.75-4.95-1.65-7.35-2.7c-2.4-1.05-4.8-2.101-7.05-3.3v21.15
					c4.05,2.1,8.55,3.75,13.35,4.8s9.75,1.649,15,1.649c5.85,0,11.1-0.75,15.75-2.25c4.5-1.35,8.4-3.449,11.55-6.149
					c3.15-2.7,5.55-6.001,7.2-9.9c1.65-3.75,2.4-8.101,2.4-12.9C65.25,74.699,64.65,71.1,63.45,67.95z"/>
			</g>
		</g>
		<g id="g72" transform="translate(620.044,93.6377)">
			<path id="path74" fill="#EE7F00" stroke="#EE7F00" d="M17.052,31.583v7.54h-5.277v-7.018H8.12v7.018H3.654v-7.54H0v11.92h20.706
				v-11.92H17.052z M19.778,28.007c0.29-0.117,0.551-0.291,0.725-0.522c0.203-0.231,0.348-0.493,0.436-0.783
				c0.087-0.319,0.145-0.638,0.145-0.985c0-0.319-0.058-0.639-0.145-0.929c-0.088-0.319-0.232-0.579-0.436-0.812
				c-0.174-0.203-0.435-0.406-0.725-0.522c-0.319-0.146-0.667-0.202-1.103-0.202c-0.435,0-0.812,0.057-1.131,0.202
				c-0.29,0.116-0.551,0.319-0.725,0.522c-0.203,0.232-0.349,0.492-0.436,0.812c-0.087,0.29-0.115,0.609-0.115,0.929
				c0,0.348,0.028,0.666,0.115,0.985c0.087,0.29,0.232,0.552,0.436,0.783c0.174,0.231,0.435,0.405,0.725,0.522
				c0.319,0.145,0.696,0.203,1.131,0.203C19.111,28.21,19.459,28.151,19.778,28.007z M12.47,13.311
				c0.175,0.058,0.436,0.116,0.812,0.202c0.377,0.088,0.783,0.175,1.247,0.291c0.435,0.086,0.898,0.174,1.334,0.261
				c0.464,0.087,0.841,0.146,1.16,0.202c-0.319,0.029-0.696,0.117-1.16,0.203c-0.436,0.088-0.899,0.175-1.334,0.262
				c-0.464,0.087-0.87,0.174-1.247,0.232c-0.377,0.086-0.667,0.145-0.812,0.203L0,18.675v4.438l20.706-6.438V11.89L0,5.422v4.438
				L12.47,13.311z M19.778,4.756c0.29-0.115,0.551-0.289,0.725-0.521c0.203-0.232,0.348-0.493,0.436-0.783
				c0.087-0.319,0.145-0.638,0.145-0.986c0-0.318-0.058-0.638-0.145-0.928c-0.088-0.318-0.232-0.58-0.436-0.812
				c-0.174-0.203-0.435-0.406-0.725-0.522C19.459,0.059,19.111,0,18.676,0c-0.435,0-0.812,0.059-1.131,0.203
				c-0.29,0.116-0.551,0.319-0.725,0.522c-0.203,0.231-0.349,0.493-0.436,0.812c-0.087,0.29-0.115,0.609-0.115,0.928
				c0,0.349,0.028,0.667,0.115,0.986c0.087,0.29,0.232,0.551,0.436,0.783c0.174,0.232,0.435,0.406,0.725,0.521
				c0.319,0.146,0.696,0.203,1.131,0.203C19.111,4.959,19.459,4.901,19.778,4.756z"/>
		</g>
	</g>
	<g id="g2828" transform="translate(7.2558511,-215.70811)">
		<g id="g2588" transform="translate(-7.2557423,215.95211)">
			
				<ellipse id="ellipse2590" sodipodi:ry="56.638" sodipodi:rx="56.796001" sodipodi:cy="79.464996" sodipodi:cx="142.48" fill="#FFFFFF" cx="142.48" cy="79.465" rx="56.796" ry="56.638">
			</ellipse>
			
				<ellipse id="ellipse2609" sodipodi:ry="53.280998" sodipodi:rx="53.43" sodipodi:cy="79.290001" sodipodi:cx="141.57899" fill="#EE7F00" cx="141.579" cy="79.29" rx="53.43" ry="53.281">
			</ellipse>
			<path id="path2611" fill="#FFFFFF" d="M140.431,132.598c-29.307-1.023-52.236-25.542-51.215-54.767
				c1.024-29.23,25.614-52.092,54.921-51.07c20.258,0.705,37.468,12.642,45.826,29.6c1.287,0.039,2.576,0.042,3.873-0.196
				c-8.672-18.813-27.408-32.175-49.575-32.946c-31.308-1.091-57.573,23.333-58.664,54.559
				c-1.094,31.214,23.396,57.407,54.706,58.496c8.494,0.297,16.61-1.303,23.96-4.389c-0.354-1.098-0.577-2.35-0.94-3.588
				C156.323,131.319,148.56,132.877,140.431,132.598L140.431,132.598z"/>
			<path id="path2613" fill="#FFFFFF" d="M177.504,79.976c0,19.521-15.887,35.366-35.465,35.366
				c-19.576,0-35.467-15.848-35.467-35.366c0-19.523,15.891-35.367,35.467-35.367C161.617,44.608,177.504,60.452,177.504,79.976
				L177.504,79.976z"/>
			<polygon id="polygon2615" fill="#EE7F00" stroke="#FFFFFF" stroke-width="3" stroke-miterlimit="10" points="149.467,60.543 
				108.972,4.676 123.418,72.961 82.548,106.678 135.674,99.041 169.491,139.025 162.039,86.722 202.548,53.066 			"/>
			<polygon id="polygon2617" fill="#FFFFFF" points="145.917,76.037 165.788,69.304 147.636,79.506 158.644,85.23 146.495,83.298 
				153.571,103.802 142.674,85.323 136.666,95.827 138.501,83.825 118.827,90.372 136.918,79.853 125.538,73.55 138.646,76.198 
				132.18,56.36 142.169,74.663 148.225,63.532 			"/>
		</g>
		<g id="g2630" transform="translate(-7.2557423,215.95211)">
			<g>
				<path id="path2632_2_" fill="#EE7F00" stroke="#EE7F00" stroke-width="2" stroke-miterlimit="10" d="M181.496,161.887
					c548.232,96.559,477.582-50.367,477.582-50.367s56.257,147.59-483.603,42.551C181.125,161.298,181.496,161.887,181.496,161.887z
					"/>
				<path fill="#EE7F00" stroke="#EE7F00" stroke-width="4" stroke-miterlimit="10" d="M181.484,161.377
					c-0.43-0.714-1.83-2.521-6.359-6.949l-1.194-1.167l1.64,0.318c128.651,25.032,234.145,37.726,313.531,37.726
					c0.02,0,0.028,0,0.047,0c109.577-0.007,149.293-24.226,163.314-44.54c12.407-17.977,6.212-34.898,6.147-35.067l0.918-0.395
					c0.088,0.182,8.575,18.339-3.49,37.529c-13.313,21.178-53.772,46.424-170.905,46.424l0,0
					c-77.551,0-179.53-11.024-303.097-32.767c-0.25,0.027-0.547-0.067-0.681-0.119 M182.662,161.584
					c123.307,21.68,225.072,32.672,302.471,32.672c116.65,0,156.858-24.981,170.047-45.938c6.322-10.045,6.875-19.794,6.019-26.699
					c0.158,6.748-1.27,16.077-7.896,25.689c-14.147,20.522-54.111,44.989-164.154,44.996c-0.014,0-0.032,0-0.047,0
					c-79.117,0-184.111-12.592-312.097-37.428C181.615,159.468,182.531,160.953,182.662,161.584L182.662,161.584z"/>
			</g>
		</g>
	</g>
</g>
<path id="path2632_1_" display="none" fill="#EE7F00" d="M661.078,115.715c0,0,56.257,147.59-483.603,42.551"/>
</svg>
